<svg width="18" height="18" viewBox="0 0 18 18" fill="none" xmlns="http://www.w3.org/2000/svg">
<path fill-rule="evenodd" clip-rule="evenodd" d="M9.01321 8.85823C9.9226 8.85823 10.7107 8.53489 11.3372 7.88821C11.9839 7.24153 12.3072 6.4534 12.3072 5.56422C12.3072 4.65483 11.9839 3.86669 11.3372 3.24022C10.6905 2.57334 9.90239 2.25 9.01321 2.25C8.10382 2.25 7.31568 2.57334 6.68921 3.22001C6.06275 3.86669 5.7192 4.65483 5.7192 5.54401C5.7192 6.4534 6.04254 7.24153 6.68921 7.868C7.31568 8.51468 8.10382 8.85823 9.01321 8.85823ZM14.7727 12.7787C14.7525 12.516 14.712 12.2129 14.6716 11.9097C14.611 11.6066 14.5504 11.3035 14.4493 11.0408C14.3685 10.7578 14.2473 10.4951 14.0856 10.2324C13.9239 9.9697 13.742 9.7272 13.5399 9.52511C13.3177 9.32303 13.0751 9.16136 12.772 9.04011C12.4689 8.91885 12.1456 8.85823 11.7818 8.85823C11.6403 8.85823 11.4989 8.91885 11.2362 9.08052C11.1486 9.13523 11.0552 9.19586 10.9526 9.26241C10.8657 9.31878 10.7723 9.3794 10.6703 9.44428C10.4884 9.56553 10.2459 9.66657 9.94281 9.76762C9.65989 9.86866 9.35676 9.90908 9.05363 9.90908C8.7505 9.90908 8.46758 9.86866 8.16445 9.76762C7.86132 9.66657 7.61881 9.56553 7.43694 9.44428C7.27377 9.33006 7.1106 9.22902 6.96871 9.14115C6.93487 9.12019 6.90223 9.09998 6.87109 9.08052C6.60838 8.91885 6.46692 8.85823 6.32546 8.85823C5.96171 8.85823 5.63837 8.91885 5.33524 9.04011C5.09273 9.16136 4.83002 9.32303 4.62794 9.52511C4.42585 9.7272 4.24397 9.9495 4.0823 10.2324C3.94084 10.4951 3.81959 10.7578 3.71855 11.0408C3.63771 11.3035 3.55688 11.6066 3.49625 11.9097C3.43563 12.2129 3.39521 12.516 3.39521 12.7787C3.375 13.0414 3.375 13.3243 3.375 13.5871C3.375 14.2944 3.5973 14.8804 4.04189 15.3048C4.48648 15.7292 5.07253 15.9313 5.77983 15.9313H12.3678C13.0751 15.9313 13.6612 15.709 14.1058 15.3048C14.5504 14.8804 14.7727 14.2944 14.7727 13.5871C14.8131 13.3243 14.7929 13.0414 14.7727 12.7787Z" fill="#8CC2FF"/>
</svg>
